<svg width="7" height="28" viewBox="0 0 7 28" fill="none" xmlns="http://www.w3.org/2000/svg">
<path d="M3.5 19.6875C5.19148 19.6875 6.5625 21.0602 6.5625 22.75C6.5625 24.4398 5.19148 25.8125 3.5 25.8125C1.80852 25.8125 0.4375 24.4398 0.4375 22.75C0.4375 21.0602 1.80852 19.6875 3.5 19.6875ZM3.5 10.9375C5.19148 10.9375 6.5625 12.3102 6.5625 14C6.5625 15.6898 5.19148 17.0625 3.5 17.0625C1.80852 17.0625 0.4375 15.6898 0.4375 14C0.4375 12.3102 1.80852 10.9375 3.5 10.9375ZM3.5 8.3125C1.80852 8.3125 0.4375 6.93984 0.4375 5.25C0.4375 3.55852 1.80852 2.1875 3.5 2.1875C5.19148 2.1875 6.5625 3.55852 6.5625 5.25C6.5625 6.93984 5.19148 8.3125 3.5 8.3125Z" fill="white"/>
</svg>
