<svg width="30" height="30" viewBox="0 0 30 30" fill="none" xmlns="http://www.w3.org/2000/svg">
<path d="M0 15C0 6.71484 6.71484 0 15 0C23.2852 0 30 6.71484 30 15C30 23.2852 23.2852 30 15 30C6.71484 30 0 23.2852 0 15ZM9.61523 19.0723C9.27539 18.6797 8.68359 18.6387 8.29102 18.9785C7.89844 19.3184 7.85742 19.9102 8.19727 20.3027C9.49805 21.8027 11.7715 23.4375 14.9473 23.4375C18.2285 23.4375 20.4961 21.8027 21.8027 20.3027C22.1426 19.9102 22.1016 19.3184 21.709 18.9785C21.3164 18.6387 20.7246 18.6797 20.3848 19.0723C19.3301 20.2852 17.543 21.5625 14.9473 21.5625C12.457 21.5625 10.6641 20.2852 9.61523 19.0723ZM10.3359 10.3125C9.29883 10.3125 8.46094 11.1504 8.46094 12.1875C8.46094 13.2246 9.29883 14.0625 10.3359 14.0625C11.3672 14.0625 12.2109 13.2246 12.2109 12.1875C12.2109 11.1504 11.3672 10.3125 10.3359 10.3125ZM19.7109 14.0625C20.7422 14.0625 21.5859 13.2246 21.5859 12.1875C21.5859 11.1504 20.7422 10.3125 19.7109 10.3125C18.6738 10.3125 17.8359 11.1504 17.8359 12.1875C17.8359 13.2246 18.6738 14.0625 19.7109 14.0625Z" fill="white"/>
</svg>
