<svg width="12" height="16" viewBox="0 0 12 16" fill="none" xmlns="http://www.w3.org/2000/svg">
<path d="M8 0V4H12L8 0ZM7 4V0H1.5C0.671562 0 0 0.671562 0 1.5V14.5C0 15.3281 0.671562 16 1.5 16H10.5C11.3284 16 12 15.3284 12 14.5V5H8.02812C7.44687 5 7 4.55312 7 4ZM9.00313 10.7531C8.88438 10.9281 8.69375 11 8.5 11C8.30625 11 8.11625 10.9268 7.96969 10.7803L6.75 9.55937V12.75C6.75 13.1641 6.41406 13.5 6 13.5C5.58594 13.5 5.25 13.1641 5.25 12.75V9.55937L4.03031 10.7791C3.73734 11.072 3.26281 11.072 2.96969 10.7791C2.67656 10.4861 2.67672 10.0116 2.96969 9.71844L5.46969 7.21844C5.76266 6.92547 6.23719 6.92547 6.53031 7.21844L9.03031 9.71844C9.32187 10.0125 9.32188 10.4875 9.00313 10.7531Z" fill="white"/>
</svg>
