<svg width="30" height="30" viewBox="0 0 30 30" fill="none" xmlns="http://www.w3.org/2000/svg">
<g clip-path="url(#clip0_7_251)">
<path d="M29.9765 2.15972L26.2265 26.482C26.1386 27.0523 25.7943 27.5496 25.2907 27.8326C25.0069 27.9919 24.689 28.0726 24.372 28.0726C24.1266 28.0726 23.8845 28.0249 23.6519 27.9278L16.4683 24.9337L13.4882 29.4038C13.2597 29.7949 12.8788 30 12.4687 30C11.7948 30 11.2499 29.455 11.2499 28.7812V23.1457C11.2499 22.7288 11.3889 22.3236 11.6449 21.9949L24.3749 5.62496L7.16592 21.1113L1.15362 18.6035C0.494323 18.3281 0.0475164 17.707 0.0035711 16.9394C-0.0403742 16.1718 0.32402 15.5496 0.944587 15.1951L27.1946 0.24781C27.821 -0.11014 28.5938 -0.07721 29.1868 0.330192C29.7797 0.737595 30.0878 1.4484 29.9765 2.15972Z" fill="white"/>
</g>
<defs>
<clipPath id="clip0_7_251">
<rect width="30" height="30" fill="white"/>
</clipPath>
</defs>
</svg>
