<svg width="27" height="30" viewBox="0 0 27 30" fill="none" xmlns="http://www.w3.org/2000/svg">
<g clip-path="url(#clip0_7_247)">
<path d="M21.3398 4.91013C19.9102 3.47986 17.5898 3.47986 16.1602 4.91013L5.37891 15.6914C2.9127 18.1582 2.9127 22.1543 5.37891 24.6211C7.8457 27.0879 11.8418 27.0879 14.3086 24.6211L23.2148 15.7148C23.8535 15.0761 24.8965 15.0761 25.5352 15.7148C26.1738 16.3535 26.1738 17.3965 25.5352 18.0351L16.6289 26.9414C12.8789 30.6914 6.80859 30.6914 3.05859 26.9414C-0.688477 23.1914 -0.688477 17.1211 3.05859 13.3711L13.8398 2.58982C16.5527 -0.121899 20.9473 -0.121899 23.6602 2.58982C26.373 5.30154 26.373 9.69724 23.6602 12.4101L13.3477 22.7226C11.6719 24.3984 8.95312 24.3984 7.27734 22.7226C5.60098 21.0469 5.60098 18.3281 7.27734 16.6523L15.7148 8.21482C16.3535 7.57615 17.3965 7.57615 18.0352 8.21482C18.6738 8.85349 18.6738 9.89646 18.0352 10.5351L9.59766 18.9726C9.20508 19.3652 9.20508 20.0097 9.59766 20.4023C9.99023 20.7949 10.6348 20.7949 11.0273 20.4023L21.3398 10.0898C22.7695 8.66013 22.7695 6.33982 21.3398 4.91013Z" fill="white"/>
</g>
<defs>
<clipPath id="clip0_7_247">
<rect width="26.25" height="30" fill="white"/>
</clipPath>
</defs>
</svg>
