<svg width="15" height="15" viewBox="0 0 15 15" fill="none" xmlns="http://www.w3.org/2000/svg">
<g clip-path="url(#clip0_63_2)">
<path d="M11.7482 3.47018C12.083 3.79774 12.083 4.32707 11.7482 4.65462L4.89107 11.363C4.55625 11.6905 4.01518 11.6905 3.68036 11.363L0.251036 8.00879C-0.0836786 7.68123 -0.0836786 7.1519 0.251036 6.82435C0.585804 6.49679 1.12848 6.49679 1.4633 6.82435L4.26161 9.58367L10.5375 3.47018C10.8723 3.1421 11.4134 3.1421 11.7482 3.47018Z" fill="white"/>
</g>
<g clip-path="url(#clip1_63_2)">
<path d="M14.7482 3.47018C15.083 3.79774 15.083 4.32707 14.7482 4.65462L7.89107 11.363C7.55625 11.6905 7.01518 11.6905 6.68036 11.363L3.25104 8.00879C2.91632 7.68123 2.91632 7.1519 3.25104 6.82435C3.5858 6.49679 4.12848 6.49679 4.4633 6.82435L7.26161 9.58367L13.5375 3.47018C13.8723 3.1421 14.4134 3.1421 14.7482 3.47018Z" fill="white"/>
</g>
<defs>
<clipPath id="clip0_63_2">
<rect width="12" height="13.4167" fill="white" transform="translate(0 0.708252)"/>
</clipPath>
<clipPath id="clip1_63_2">
<rect width="12" height="13.4167" fill="white" transform="translate(3 0.708252)"/>
</clipPath>
</defs>
</svg>
